<svg xmlns="http://www.w3.org/2000/svg" viewBox="0 0 512 512" width="512" height="512"><defs><linearGradient id="bg" x1="0" y1="0" x2="0" y2="1"><stop offset="0%" stop-color="#10b981"/><stop offset="100%" stop-color="#059669"/></linearGradient><linearGradient id="flame" x1="0" y1="0" x2="0" y2="1"><stop offset="0%" stop-color="#fbbf24"/><stop offset="100%" stop-color="#f97316"/></linearGradient></defs><rect width="512" height="512" rx="108" fill="url(#bg)"/><path d="M256 100c0 0 80 80 80 160c0 50-20 80-40 95c10-20 10-50-10-80c-10 15-20 35-25 55c-5-30-25-60-45-85c5 30-5 65-25 90c-20-15-40-45-40-95c0-80 80-140 80-140z" fill="url(#flame)" opacity="0.95"/><circle cx="256" cy="340" r="30" fill="white" opacity="0.9"/><path d="M256 310v60M236 340h40" stroke="#059669" stroke-width="6" stroke-linecap="round"/></svg>
